<?xml version="1.0" encoding="utf-8"?>
<!-- Generator: Adobe Illustrator 16.0.0, SVG Export Plug-In . SVG Version: 6.00 Build 0)  -->
<!DOCTYPE svg PUBLIC "-//W3C//DTD SVG 1.1//EN" "http://www.w3.org/Graphics/SVG/1.1/DTD/svg11.dtd">
<svg version="1.1" id="Layer_1" xmlns="http://www.w3.org/2000/svg" xmlns:xlink="http://www.w3.org/1999/xlink" x="0px" y="0px"
	 width="153.015px" height="126.013px" viewBox="0 0 153.015 126.013" enable-background="new 0 0 153.015 126.013"
	 xml:space="preserve">
<g>
	<path fill="#FFFFFF" d="M57.342,50.868c-8.973-4.188-15.239,0.769-21.548,6.201c-4.175,3.597-9.098,6.357-13.038,10.159
		c-1.329,1.285-1.798,5.684-0.714,6.854c5.824,6.274,12.056,12.218,18.542,17.813c7.36,6.357,16.002,5.875,21.734-1.91
		c3.592-4.883,5.292-11.158,7.838-16.809C68.665,62.556,64.259,54.091,57.342,50.868z M52.038,91.378
		c-7.595,0.23-13.731-8.146-13.693-18.704c0.041-10.104,5.84-18.332,13.074-18.536c7.435-0.21,13.882,8.534,13.838,18.773
		C65.218,82.811,59.245,91.154,52.038,91.378z"/>
	<path fill="none" d="M118.208,11.207c-2.246,0.226-5.343,3.733-5.771,6.195c-0.285,1.639,3.365,5.452,5.453,5.609
		c2.38,0.176,4.983-2.625,9.676-5.446C123.015,14.28,120.438,10.983,118.208,11.207z"/>
	<path fill="#571448" d="M130.766,12.955c-2.318-4.039-7.369-8.051-11.769-8.839c-3.367-0.597-8.506,3.101-11.328,6.256
		c-6.175,6.88-11.372,14.639-17.284,22.458c-2.767-2.891-4.296-4.495-5.831-6.101c-9.896-10.368-16.383-10.599-26.847-0.835
		C45.704,37.093,33.72,48.304,21.781,59.57c-9.838,9.289-9.971,16.149-0.619,26.26c4.72,5.113,9.484,10.172,14.228,15.264
		c18.661,20.018,25.882,19.861,43.438-1.066c0.985-1.17,1.625-2.762,2.019-4.265c2.307-8.784-0.843-16.889-2.861-25.272
		c-3.192-13.257-5.498-26.727-8.181-40.108c1.034-0.292,2.071-0.578,3.108-0.863c15.727,13.55,18.236,33.717,24.545,52.027
		c18.495-12.572,19.153-18.807,2.753-38.735c8.452-5.025,16.184-9.757,24.043-14.257C130.555,24.936,134.68,19.762,130.766,12.955z
		 M70.157,73.176c-2.547,5.65-4.246,11.926-7.838,16.809c-5.732,7.785-14.375,8.268-21.734,1.91
		c-6.486-5.596-12.718-11.539-18.542-17.813c-1.083-1.17-0.614-5.568,0.714-6.854c3.94-3.802,8.863-6.562,13.038-10.159
		c6.309-5.432,12.575-10.39,21.548-6.201C64.259,54.091,68.665,62.556,70.157,73.176z M127.565,17.565
		c-4.692,2.821-7.296,5.622-9.676,5.446c-2.088-0.157-5.738-3.971-5.453-5.609c0.429-2.462,3.525-5.97,5.771-6.195"/>
	<path fill="#571448" d="M89.478,87.938c-4.192-14.497-8.404-29.047-12.612-43.598c-0.649,0.176-1.303,0.353-1.956,0.537
		c6.024,26.108,12.052,52.226,18.127,78.538c9.92-4.066,12.938-7.935,12.014-14.291C102.793,93.663,99.371,88.963,89.478,87.938z"/>
	<path fill="#FFFFFF" d="M54.016,76.189c5.29-6.398,5.721-13.382,0.776-17.394c-4.734-3.829-7.953-1.333-11.254,3.746
		C54.329,61.509,56.457,64.67,54.016,76.189z"/>
	<path fill="#FFFFFF" d="M50.996,81.221c-2.743-2.885-3.878-7.289-5.487-10.676c-3.406,7.044-1.872,14.694,4.288,16.902
		c6.277,2.252,8.979-1.691,10.635-6.84C56.661,80.949,52.275,82.565,50.996,81.221z"/>
	<path fill="#571448" d="M51.418,54.138c-7.234,0.204-13.033,8.432-13.074,18.536c-0.038,10.559,6.099,18.935,13.693,18.704
		c7.208-0.224,13.181-8.567,13.219-18.467C65.3,62.671,58.854,53.928,51.418,54.138z M54.792,58.796
		c4.945,4.011,4.514,10.995-0.776,17.394c2.44-11.519,0.312-14.681-10.478-13.647C46.839,57.462,50.058,54.967,54.792,58.796z
		 M49.797,87.447c-6.159-2.208-7.693-9.858-4.288-16.902c1.608,3.387,2.744,7.791,5.487,10.676c1.279,1.345,5.665-0.271,9.436-0.613
		C58.776,85.756,56.074,89.699,49.797,87.447z"/>
</g>
</svg>
